<svg xmlns="http://www.w3.org/2000/svg" height="357" xmlns:ev="http://www.w3.org/2001/xml-events" viewBox="0 0 759 357" width="759" xmlns:xlink="http://www.w3.org/1999/xlink"><style type="text/css"><![CDATA[
.st1 {fill:#191919;font-family:Times New Roman;font-size:22pt}
.st2 {font-size:14.3pt}
]]></style><defs/><g id="page1" transform="translate(5,5)"><rect height="347" y="0" width="749" fill="#ffffff" x="0" stroke="#808080"/><path id="shape1" fill-rule="evenodd" transform="translate(198.26,69.85)" fill="#00b050" d="M0,25.5C0,11.4,11.6,0,26,0C40.4,0,52,11.4,52,25.5C52,39.6,40.4,51,26,51C11.6,51,0,39.6,0,25.5z" stroke="#323232"/><path id="shape2" fill-rule="evenodd" transform="translate(199.26,142.85)" fill="#00b050" d="M0,25.5C0,11.4,11.6,0,26,0C40.4,0,52,11.4,52,25.5C52,39.6,40.4,51,26,51C11.6,51,0,39.6,0,25.5z" stroke="#323232"/><path id="shape3" fill-rule="evenodd" transform="translate(198.26,220.85)" fill="#00b050" d="M0,25.5C0,11.4,11.6,0,26,0C40.4,0,52,11.4,52,25.5C52,39.6,40.4,51,26,51C11.6,51,0,39.6,0,25.5z" stroke="#323232"/><path id="shape4" fill-rule="evenodd" transform="translate(299.26,38.85)" fill="#afafaf" d="M0,25.5C0,11.4,11.6,0,26,0C40.4,0,52,11.4,52,25.5C52,39.6,40.4,51,26,51C11.6,51,0,39.6,0,25.5z" stroke="#323232"/><path id="shape5" fill-rule="evenodd" transform="translate(300.26,111.85)" fill="#afafaf" d="M0,25.5C0,11.4,11.6,0,26,0C40.4,0,52,11.4,52,25.5C52,39.6,40.4,51,26,51C11.6,51,0,39.6,0,25.5z" stroke="#323232"/><path id="shape6" fill-rule="evenodd" transform="translate(299.26,189.85)" fill="#afafaf" d="M0,25.5C0,11.4,11.6,0,26,0C40.4,0,52,11.4,52,25.5C52,39.6,40.4,51,26,51C11.6,51,0,39.6,0,25.5z" stroke="#323232"/><path id="shape7" fill-rule="evenodd" transform="translate(299.26,256.85)" fill="#afafaf" d="M0,25.5C0,11.4,11.6,0,26,0C40.4,0,52,11.4,52,25.5C52,39.6,40.4,51,26,51C11.6,51,0,39.6,0,25.5z" stroke="#323232"/><path id="shape8" fill-rule="evenodd" transform="translate(404.26,38.85)" fill="#afafaf" d="M0,25.5C0,11.4,11.6,0,26,0C40.4,0,52,11.4,52,25.5C52,39.6,40.4,51,26,51C11.6,51,0,39.6,0,25.5z" stroke="#323232"/><path id="shape9" fill-rule="evenodd" transform="translate(405.26,111.85)" fill="#afafaf" d="M0,25.5C0,11.4,11.6,0,26,0C40.4,0,52,11.4,52,25.5C52,39.6,40.4,51,26,51C11.6,51,0,39.6,0,25.5z" stroke="#323232"/><path id="shape10" fill-rule="evenodd" transform="translate(404.26,189.85)" fill="#afafaf" d="M0,25.5C0,11.4,11.6,0,26,0C40.4,0,52,11.4,52,25.5C52,39.6,40.4,51,26,51C11.6,51,0,39.6,0,25.5z" stroke="#323232"/><path id="shape11" fill-rule="evenodd" transform="translate(404.26,256.85)" fill="#afafaf" d="M0,25.5C0,11.4,11.6,0,26,0C40.4,0,52,11.4,52,25.5C52,39.6,40.4,51,26,51C11.6,51,0,39.6,0,25.5z" stroke="#323232"/><path id="shape12" fill-rule="evenodd" transform="translate(502.26,68.85)" fill="#ff0000" d="M0,25.5C0,11.4,11.6,0,26,0C40.4,0,52,11.4,52,25.5C52,39.6,40.4,51,26,51C11.6,51,0,39.6,0,25.5z" stroke="#323232"/><path id="shape13" fill-rule="evenodd" transform="translate(503.26,141.85)" fill="#ff0000" d="M0,25.5C0,11.4,11.6,0,26,0C40.4,0,52,11.4,52,25.5C52,39.6,40.4,51,26,51C11.6,51,0,39.6,0,25.5z" stroke="#323232"/><path id="shape14" fill-rule="evenodd" transform="translate(502.26,219.85)" fill="#ff0000" d="M0,25.5C0,11.4,11.6,0,26,0C40.4,0,52,11.4,52,25.5C52,39.6,40.4,51,26,51C11.6,51,0,39.6,0,25.5z" stroke="#323232"/><g id="shape15" transform="translate(45.76,169.85)"><path stroke-width="2" fill="none" d="M0,0L99.2,0" stroke="#323232"/><path stroke-width="1" stroke-linecap="round" fill="#323232" d="M123,0L99.2,-6L99.2,6L123,0" stroke="#323232"/></g><g id="shape16" transform="translate(579.76,166.85)"><path stroke-width="2" fill="none" d="M0,0L99.2,0" stroke="#323232"/><path stroke-width="1" stroke-linecap="round" fill="#323232" d="M123,0L99.2,-6L99.2,6L123,0" stroke="#323232"/></g><g id="shape17" transform="translate(65.26,72.85)"><text class="st1"><tspan y="43" x="30">X</tspan><tspan y="48.4" class="st2" x="51">k</tspan></text></g><g id="shape18" transform="translate(581.26,74.85)"><text class="st1"><tspan y="43" x="20">X</tspan><tspan y="48.4" class="st2" x="41">k+1</tspan></text></g></g></svg>